<svg width="58" height="58" viewBox="0 0 58 58" fill="none" xmlns="http://www.w3.org/2000/svg">
<path d="M53.1663 29.0006C53.1663 15.6538 42.3464 4.83398 28.9997 4.83398C15.6528 4.83398 4.83301 15.6538 4.83301 29.0006C4.83301 42.3474 15.6528 53.1673 28.9997 53.1673" stroke="black" stroke-width="3.625" stroke-linecap="round" stroke-linejoin="round"/>
<path d="M48.3337 13.7732C46.0748 13.936 43.1816 14.8106 41.1752 17.4073C37.5517 22.0977 33.9279 22.4891 31.5122 20.9256C27.8884 18.5805 30.9337 14.7819 26.6806 12.7175C23.9087 11.3721 23.5222 7.71091 25.065 4.83398" stroke="black" stroke-width="3.625" stroke-linecap="round" stroke-linejoin="round"/>
<path d="M4.83301 26.584C6.67572 28.1841 9.25662 29.6488 12.2975 29.6488C18.58 29.6488 19.8366 30.8492 19.8366 35.6508C19.8366 40.4525 19.8366 40.4525 21.0931 44.0536C21.9104 46.3961 22.1961 48.7385 20.567 50.7506" stroke="black" stroke-width="3.625" stroke-linecap="round" stroke-linejoin="round"/>
<path d="M48.0891 48.1606L53.167 53.166M51.012 41.1936C51.012 46.5939 46.6256 50.9714 41.2144 50.9714C35.8035 50.9714 31.417 46.5939 31.417 41.1936C31.417 35.7936 35.8035 31.416 41.2144 31.416C46.6256 31.416 51.012 35.7936 51.012 41.1936Z" stroke="black" stroke-width="3.625" stroke-linecap="round" stroke-linejoin="round"/>
</svg>
